<svg version="1.1" xmlns="http://www.w3.org/2000/svg" viewBox="0 0 6310.66429683594 6998.480676560272" width="6310.66429683594" height="6998.480676560272">
  <!-- svg-source:excalidraw -->
  
  <defs>
    <style class="style-fonts">
      @font-face {
        font-family: "Virgil";
        src: url("https://excalidraw.com/Virgil.woff2");
      }
      @font-face {
        font-family: "Cascadia";
        src: url("https://excalidraw.com/Cascadia.woff2");
      }
      @font-face {
        font-family: "Assistant";
        src: url("https://excalidraw.com/Assistant-Regular.woff2");
      }
    </style>
    
  </defs>
  <g stroke-linecap="round" transform="translate(1669.1414146067573 10) rotate(0 1106.0987131024617 166.80317475552602)"><path d="M32 0 C736.26 12.3, 1441.04 12.53, 2180.2 0 C2201.75 0.17, 2210.08 8.81, 2212.2 32 C2217.87 131.44, 2215.24 226.85, 2212.2 301.61 C2210.39 323.82, 2202.29 331.64, 2180.2 333.61 C1525.09 318.57, 869.69 317.96, 32 333.61 C8.09 335.08, -0.98 321.08, 0 301.61 C4.17 228.59, 1.14 156.36, 0 32 C-1.88 10.14, 14.09 -2.26, 32 0" stroke="none" stroke-width="0" fill="#eebefa"></path><path d="M32 0 C531.63 -3.42, 1032.76 -3.2, 2180.2 0 M32 0 C725.05 -0.4, 1418.72 -1.03, 2180.2 0 M2180.2 0 C2202.07 1.18, 2214.15 8.79, 2212.2 32 M2180.2 0 C2202.09 1.32, 2211.15 8.77, 2212.2 32 M2212.2 32 C2211.61 130, 2212.12 229.91, 2212.2 301.61 M2212.2 32 C2211.52 139.31, 2212.46 246.87, 2212.2 301.61 M2212.2 301.61 C2211.17 321.06, 2200.24 334.17, 2180.2 333.61 M2212.2 301.61 C2213.73 323.4, 2202.13 333.3, 2180.2 333.61 M2180.2 333.61 C1520.53 330.27, 861.99 330.1, 32 333.61 M2180.2 333.61 C1336.75 341.23, 494.11 340.96, 32 333.61 M32 333.61 C9.23 335.6, 0.8 324.63, 0 301.61 M32 333.61 C9.28 334.3, -1.43 321.72, 0 301.61 M0 301.61 C0.07 237.02, 1.33 172.8, 0 32 M0 301.61 C-0.69 224.52, -0.01 146.93, 0 32 M0 32 C-0.55 10.71, 11.92 -0.92, 32 0 M0 32 C-0.76 9.54, 8.81 -1.93, 32 0" stroke="#1e1e1e" stroke-width="2" fill="none"></path></g><g stroke-linecap="round" transform="translate(1701.2646296439189 1133.243826827139) rotate(0 923.8384373305198 173.5314603615108)"><path d="M32 0 C421.45 -0.44, 810.89 0.57, 1815.68 0 C1840.42 -0.28, 1845.44 11.89, 1847.68 32 C1851.12 138.39, 1851.47 242.37, 1847.68 315.06 C1845.79 337.91, 1839.03 348.79, 1815.68 347.06 C1421.61 357.35, 1028.99 356.46, 32 347.06 C11.26 348.11, -1.97 333.6, 0 315.06 C-0.86 208.44, -3.93 96.15, 0 32 C0.64 13.49, 8.34 1.77, 32 0" stroke="none" stroke-width="0" fill="#e9ecef"></path><path d="M32 0 C444.4 -2.05, 856.52 -1.82, 1815.68 0 M32 0 C479.3 -4.99, 927.08 -5.35, 1815.68 0 M1815.68 0 C1838.44 0.65, 1848 12.35, 1847.68 32 M1815.68 0 C1837.72 0.29, 1849.85 9.88, 1847.68 32 M1847.68 32 C1847.85 137.8, 1846.9 243.8, 1847.68 315.06 M1847.68 32 C1848.23 121.73, 1847.72 210.32, 1847.68 315.06 M1847.68 315.06 C1848.45 337.93, 1835.94 346.73, 1815.68 347.06 M1847.68 315.06 C1849.93 335.57, 1834.95 348.1, 1815.68 347.06 M1815.68 347.06 C1451.14 344.2, 1086.69 343.84, 32 347.06 M1815.68 347.06 C1309.45 351.32, 802.91 352.01, 32 347.06 M32 347.06 C11.85 346.44, -0.59 337.08, 0 315.06 M32 347.06 C9.22 344.89, 0.44 335.97, 0 315.06 M0 315.06 C-3.32 229.38, -1.3 145.35, 0 32 M0 315.06 C0.11 219.6, -1.38 125.97, 0 32 M0 32 C1.26 9.12, 10.12 1.75, 32 0 M0 32 C1.27 9.66, 11.13 -0.17, 32 0" stroke="#1e1e1e" stroke-width="2" fill="none"></path></g><g stroke-linecap="round" transform="translate(2449.0309701727065 5369.111459503427) rotate(0 835.1469735503051 801.7960415358675)"><path d="M32 0 C445.91 -1.65, 858.75 0.29, 1638.29 0 C1657.97 -0.84, 1673.64 7.55, 1670.29 32 C1666.66 626.79, 1669.47 1222.51, 1670.29 1571.59 C1668.12 1592.47, 1660.4 1605.14, 1638.29 1603.59 C1166.81 1608.9, 692.81 1607.16, 32 1603.59 C14.15 1601.98, 0.37 1595.3, 0 1571.59 C7.34 1215.24, 4.85 856.76, 0 32 C0.49 7.29, 10.48 -0.56, 32 0" stroke="none" stroke-width="0" fill="#b2f2bb"></path><path d="M32 0 C579.67 -1.29, 1127.9 -2.47, 1638.29 0 M32 0 C635.64 1.7, 1239.9 1.81, 1638.29 0 M1638.29 0 C1658.05 1.55, 1668.32 9.93, 1670.29 32 M1638.29 0 C1658.93 -0.92, 1671.5 10.44, 1670.29 32 M1670.29 32 C1671.86 599.91, 1672.11 1166.38, 1670.29 1571.59 M1670.29 32 C1664.25 381.55, 1664.01 731.37, 1670.29 1571.59 M1670.29 1571.59 C1669.46 1593.16, 1657.68 1602.2, 1638.29 1603.59 M1670.29 1571.59 C1669.54 1591.57, 1661.55 1603.04, 1638.29 1603.59 M1638.29 1603.59 C1165.43 1597.47, 693.44 1598.29, 32 1603.59 M1638.29 1603.59 C1030.81 1597.53, 424.38 1597.72, 32 1603.59 M32 1603.59 C11.84 1605.54, -1.61 1592.72, 0 1571.59 M32 1603.59 C11.24 1602.05, -1.86 1592.06, 0 1571.59 M0 1571.59 C3.86 1147.41, 4.63 724.59, 0 32 M0 1571.59 C-4.92 1129.36, -4.87 686.91, 0 32 M0 32 C1.29 9.73, 9.98 1.54, 32 0 M0 32 C-0.03 11.11, 8.96 0.33, 32 0" stroke="#1e1e1e" stroke-width="2" fill="none"></path></g><g transform="translate(2506.7094468728737 5541.418467785763) rotate(0 772.804443359375 512.3378455359746)"><text x="0" y="0" font-family="Virgil, Segoe UI Emoji" font-size="102.46756910719493px" fill="#1e1e1e" text-anchor="start" style="white-space: pre;" direction="ltr" dominant-baseline="text-before-edge">Create everything with table </text><text x="0" y="128.08446138399367" font-family="Virgil, Segoe UI Emoji" font-size="102.46756910719493px" fill="#1e1e1e" text-anchor="start" style="white-space: pre;" direction="ltr" dominant-baseline="text-before-edge">&lt;td&gt;.</text><text x="0" y="256.16892276798734" font-family="Virgil, Segoe UI Emoji" font-size="102.46756910719493px" fill="#1e1e1e" text-anchor="start" style="white-space: pre;" direction="ltr" dominant-baseline="text-before-edge"></text><text x="0" y="384.253384151981" font-family="Virgil, Segoe UI Emoji" font-size="102.46756910719493px" fill="#1e1e1e" text-anchor="start" style="white-space: pre;" direction="ltr" dominant-baseline="text-before-edge">Most browsers don't support </text><text x="0" y="512.3378455359747" font-family="Virgil, Segoe UI Emoji" font-size="102.46756910719493px" fill="#1e1e1e" text-anchor="start" style="white-space: pre;" direction="ltr" dominant-baseline="text-before-edge">normal email template designed</text><text x="0" y="640.4223069199684" font-family="Virgil, Segoe UI Emoji" font-size="102.46756910719493px" fill="#1e1e1e" text-anchor="start" style="white-space: pre;" direction="ltr" dominant-baseline="text-before-edge">with HTML and CSS.</text><text x="0" y="768.506768303962" font-family="Virgil, Segoe UI Emoji" font-size="102.46756910719493px" fill="#1e1e1e" text-anchor="start" style="white-space: pre;" direction="ltr" dominant-baseline="text-before-edge"></text><text x="0" y="896.5912296879557" font-family="Virgil, Segoe UI Emoji" font-size="102.46756910719493px" fill="#1e1e1e" text-anchor="start" style="white-space: pre;" direction="ltr" dominant-baseline="text-before-edge">Using inline CSS completely.</text></g><g stroke-linecap="round"><g transform="translate(2701.2539702302647 355.2714488649681) rotate(0 -21.550851679515063 388.29449373339656)"><path d="M-0.96 0.09 C-8.03 129.82, -36.11 648.37, -43.04 777.71 M0.73 -0.91 C-6.43 128.58, -36.66 646.48, -43.95 776.17" stroke="#1e1e1e" stroke-width="2" fill="none"></path></g><g transform="translate(2701.2539702302647 355.2714488649681) rotate(0 -21.550851679515063 388.29449373339656)"><path d="M-51.14 752.23 C-49.37 758.29, -45.88 765.03, -43.95 776.17 M-51.14 752.23 C-49.94 758.28, -47.15 765.15, -43.95 776.17" stroke="#1e1e1e" stroke-width="2" fill="none"></path></g><g transform="translate(2701.2539702302647 355.2714488649681) rotate(0 -21.550851679515063 388.29449373339656)"><path d="M-34.07 753.21 C-36.49 758.89, -37.2 765.39, -43.95 776.17 M-34.07 753.21 C-37.35 758.84, -39.04 765.45, -43.95 776.17" stroke="#1e1e1e" stroke-width="2" fill="none"></path></g></g><mask></mask><g stroke-linecap="round"><g transform="translate(2624.141806506469 1482.075920734015) rotate(0 250.92321375968038 1941.1778921263244)"><path d="M0.58 0.75 C84.25 647.8, 418.56 3235.67, 502.15 3882.44 M-0.58 0.11 C82.96 647.34, 417.68 3237, 501.36 3884.02" stroke="#1e1e1e" stroke-width="2" fill="none"></path></g><g transform="translate(2624.141806506469 1482.075920734015) rotate(0 250.92321375968038 1941.1778921263244)"><path d="M489.87 3861.82 C494.71 3869.13, 497.15 3875.97, 501.36 3884.02 M489.87 3861.82 C492.76 3867.17, 494.52 3872.35, 501.36 3884.02" stroke="#1e1e1e" stroke-width="2" fill="none"></path></g><g transform="translate(2624.141806506469 1482.075920734015) rotate(0 250.92321375968038 1941.1778921263244)"><path d="M506.83 3859.63 C506.43 3867.7, 503.63 3875.21, 501.36 3884.02 M506.83 3859.63 C505.98 3865.46, 504.01 3871.13, 501.36 3884.02" stroke="#1e1e1e" stroke-width="2" fill="none"></path></g></g><mask></mask><g stroke-linecap="round"><g transform="translate(2434.839358842173 1483.8796709697424) rotate(0 -732.6765075915229 1931.2395947518198)"><path d="M-0.26 -0.02 C-23.9 265.13, 103.04 946.51, -141.3 1590.35 C-385.64 2234.19, -1245.48 3484.42, -1466.3 3863.03 M1.8 -1.07 C-22.02 263.78, 102.2 944.95, -142.09 1588.63 C-386.37 2232.3, -1243.19 3481.93, -1463.91 3860.97" stroke="#e03131" stroke-width="2" fill="none"></path></g><g transform="translate(2434.839358842173 1483.8796709697424) rotate(0 -732.6765075915229 1931.2395947518198)"><path d="M-1458.66 3836.53 C-1460.6 3845.46, -1461.13 3851.79, -1463.91 3860.97 M-1458.66 3836.53 C-1459.66 3844.76, -1463.23 3854.24, -1463.91 3860.97" stroke="#e03131" stroke-width="2" fill="none"></path></g><g transform="translate(2434.839358842173 1483.8796709697424) rotate(0 -732.6765075915229 1931.2395947518198)"><path d="M-1444.17 3845.62 C-1451.07 3851.38, -1456.59 3854.58, -1463.91 3860.97 M-1444.17 3845.62 C-1450.11 3850.65, -1458.69 3856.99, -1463.91 3860.97" stroke="#e03131" stroke-width="2" fill="none"></path></g></g><mask></mask><g stroke-linecap="round" transform="translate(207.0715583071792 5328.177829337952) rotate(0 892.443348417479 830.1514236111595)"><path d="M32 0 C390.28 -3.83, 750.81 -3.19, 1752.89 0 C1774.94 1.48, 1784.02 10.04, 1784.89 32 C1781.72 595.03, 1783.7 1155.01, 1784.89 1628.3 C1788.27 1646.1, 1775.59 1662.77, 1752.89 1660.3 C1189.64 1667.67, 624.04 1666.14, 32 1660.3 C10.27 1657.43, -0.66 1652.47, 0 1628.3 C-9.09 1243.74, -8.7 856.34, 0 32 C2.24 13.14, 9.79 2.45, 32 0" stroke="none" stroke-width="0" fill="#ffc9c9"></path><path d="M32 0 C715.77 5.88, 1400.5 5.98, 1752.89 0 M32 0 C383.22 -4.41, 734.36 -3.99, 1752.89 0 M1752.89 0 C1773.97 -1.58, 1786.44 10.05, 1784.89 32 M1752.89 0 C1775.24 -1.36, 1783.8 10.4, 1784.89 32 M1784.89 32 C1782.31 547.84, 1781.76 1063.88, 1784.89 1628.3 M1784.89 32 C1789.15 403.15, 1789.11 774.99, 1784.89 1628.3 M1784.89 1628.3 C1783.14 1650.82, 1775.85 1658.67, 1752.89 1660.3 M1784.89 1628.3 C1785.39 1651.35, 1774.02 1658.08, 1752.89 1660.3 M1752.89 1660.3 C1198.84 1658.5, 645.28 1658.33, 32 1660.3 M1752.89 1660.3 C1188.01 1663.3, 623.3 1663.79, 32 1660.3 M32 1660.3 C9.8 1660.29, -0.79 1650.11, 0 1628.3 M32 1660.3 C10.34 1661.12, 2.07 1647.91, 0 1628.3 M0 1628.3 C-2.3 1271.85, -2.01 913.87, 0 32 M0 1628.3 C-0.28 1274.69, -0.72 920.61, 0 32 M0 32 C0.92 12.29, 8.68 1.12, 32 0 M0 32 C1.19 11.92, 9.82 -0.51, 32 0" stroke="#0c8599" stroke-width="2" fill="none"></path></g><g transform="translate(262.1234497489909 5718.627514880615) rotate(0 847.6649169921875 355.4822801186583)"><text x="0" y="0" font-family="Virgil, Segoe UI Emoji" font-size="113.75432963797068px" fill="#e03131" text-anchor="start" style="white-space: pre;" direction="ltr" dominant-baseline="text-before-edge">Not supported, bad view , </text><text x="0" y="142.19291204746335" font-family="Virgil, Segoe UI Emoji" font-size="113.75432963797068px" fill="#e03131" text-anchor="start" style="white-space: pre;" direction="ltr" dominant-baseline="text-before-edge">misaligned content.</text><text x="0" y="284.3858240949267" font-family="Virgil, Segoe UI Emoji" font-size="113.75432963797068px" fill="#e03131" text-anchor="start" style="white-space: pre;" direction="ltr" dominant-baseline="text-before-edge"></text><text x="0" y="426.5787361423901" font-family="Virgil, Segoe UI Emoji" font-size="113.75432963797068px" fill="#e03131" text-anchor="start" style="white-space: pre;" direction="ltr" dominant-baseline="text-before-edge">Fine for google, but not</text><text x="0" y="568.7716481898534" font-family="Virgil, Segoe UI Emoji" font-size="113.75432963797068px" fill="#e03131" text-anchor="start" style="white-space: pre;" direction="ltr" dominant-baseline="text-before-edge">supported for other providers.</text></g><g stroke-linecap="round" transform="translate(3110.4516842593 1937.4956010041928) rotate(0 1595.1063062883202 638.0516773881227)"><path d="M32 0 C1082.91 15.26, 2134.62 14.69, 3158.21 0 C3182.77 -2.95, 3193.62 10.05, 3190.21 32 C3195.98 307.78, 3198 585.9, 3190.21 1244.1 C3190.69 1267.59, 3182.69 1277.58, 3158.21 1276.1 C2299.72 1284.09, 1442.35 1283.73, 32 1276.1 C9.07 1275.2, -2.6 1263.48, 0 1244.1 C4.3 974.17, 1.84 701.13, 0 32 C2.85 9.84, 13.43 -3.57, 32 0" stroke="none" stroke-width="0" fill="#d0f4de"></path><path d="M32 0 C1237.18 9.98, 2440.94 10.51, 3158.21 0 M32 0 C829.5 -7.17, 1626.34 -6.97, 3158.21 0 M3158.21 0 C3179.4 -1.05, 3190.14 10.2, 3190.21 32 M3158.21 0 C3178.02 -0.65, 3191.08 10.01, 3190.21 32 M3190.21 32 C3191.83 437.49, 3192.09 843.57, 3190.21 1244.1 M3190.21 32 C3187.84 325.42, 3188.17 618.19, 3190.21 1244.1 M3190.21 1244.1 C3190.13 1266.87, 3179.32 1275.58, 3158.21 1276.1 M3190.21 1244.1 C3189.82 1263.97, 3180.33 1276.3, 3158.21 1276.1 M3158.21 1276.1 C2309.52 1281.14, 1459.15 1280.88, 32 1276.1 M3158.21 1276.1 C2154.99 1276.03, 1151.19 1276.1, 32 1276.1 M32 1276.1 C9.05 1274.34, 1.74 1266.79, 0 1244.1 M32 1276.1 C11.57 1274.72, -1.18 1265.35, 0 1244.1 M0 1244.1 C2.5 830.21, 2.37 416.22, 0 32 M0 1244.1 C1.66 993.65, 1.45 743.18, 0 32 M0 32 C0.9 10.9, 10.75 -1.39, 32 0 M0 32 C1.8 11.89, 11.8 1.65, 32 0" stroke="#2f9e44" stroke-width="2" fill="none"></path></g><g transform="translate(3258.3287301013193 2061.4975671084317) rotate(0 1454.5379638671877 410.4899301417149)"><text x="0" y="0" font-family="Virgil, Segoe UI Emoji" font-size="93.82626974667768px" fill="#1e1e1e" text-anchor="start" style="white-space: pre;" direction="ltr" dominant-baseline="text-before-edge">Permanent Solution</text><text x="0" y="117.2828371833471" font-family="Virgil, Segoe UI Emoji" font-size="93.82626974667768px" fill="#1e1e1e" text-anchor="start" style="white-space: pre;" direction="ltr" dominant-baseline="text-before-edge"></text><text x="0" y="234.5656743666942" font-family="Virgil, Segoe UI Emoji" font-size="93.82626974667768px" fill="#1e1e1e" text-anchor="start" style="white-space: pre;" direction="ltr" dominant-baseline="text-before-edge">Use Email Template Provider</text><text x="0" y="351.8485115500413" font-family="Virgil, Segoe UI Emoji" font-size="93.82626974667768px" fill="#1e1e1e" text-anchor="start" style="white-space: pre;" direction="ltr" dominant-baseline="text-before-edge"></text><text x="0" y="469.1313487333884" font-family="Virgil, Segoe UI Emoji" font-size="93.82626974667768px" fill="#1e1e1e" text-anchor="start" style="white-space: pre;" direction="ltr" dominant-baseline="text-before-edge">i.e best and trending , ease to use</text><text x="0" y="586.4141859167355" font-family="Virgil, Segoe UI Emoji" font-size="93.82626974667768px" fill="#1e1e1e" text-anchor="start" style="white-space: pre;" direction="ltr" dominant-baseline="text-before-edge"></text><text x="0" y="703.6970231000826" font-family="Virgil, Segoe UI Emoji" font-size="93.82626974667768px" fill="#1e1e1e" text-anchor="start" style="white-space: pre;" direction="ltr" dominant-baseline="text-before-edge">Mailchimp or Stripo (Mailchimp is more easy to use in my view.) </text></g><g stroke-linecap="round"><g transform="translate(2836.5239166695474 1484.0210171429087) rotate(0 915.3918924333068 226.7758267304606)"><path d="M-0.26 -0.38 C103.77 42.87, 318.95 184.74, 624.2 260.23 C929.46 335.72, 1630.17 420.41, 1831.28 452.55 M1.81 -1.63 C106.19 41.74, 321.54 185.79, 626.37 261.62 C931.2 337.44, 1629.98 421.29, 1830.77 453.34" stroke="#2f9e44" stroke-width="2" fill="none"></path></g><g transform="translate(2836.5239166695474 1484.0210171429087) rotate(0 915.3918924333068 226.7758267304606)"><path d="M1806.31 458.51 C1813.08 455.26, 1820.65 456.24, 1830.77 453.34 M1806.31 458.51 C1810.71 457.99, 1816.85 456, 1830.77 453.34" stroke="#2f9e44" stroke-width="2" fill="none"></path></g><g transform="translate(2836.5239166695474 1484.0210171429087) rotate(0 915.3918924333068 226.7758267304606)"><path d="M1808.71 441.58 C1814.85 443.47, 1821.7 449.59, 1830.77 453.34 M1808.71 441.58 C1812.59 444.71, 1818.22 446.38, 1830.77 453.34" stroke="#2f9e44" stroke-width="2" fill="none"></path></g></g><mask></mask><g stroke-linecap="round" transform="translate(3442.5110451982155 3891.3617246878266) rotate(0 1195.3802656994217 579.6811349750251)"><path d="M32 0 C608.22 -9.1, 1182.57 -9.42, 2358.76 0 C2379.07 0.22, 2387.89 8.31, 2390.76 32 C2384.38 467.71, 2384.21 906.68, 2390.76 1127.36 C2390.62 1146.91, 2381.57 1159.79, 2358.76 1159.36 C1454.15 1171.04, 547.29 1169.54, 32 1159.36 C7.8 1162.63, 2.45 1145.39, 0 1127.36 C2.7 791.48, 3 454.16, 0 32 C2.6 12.82, 12.53 -3.17, 32 0" stroke="none" stroke-width="0" fill="#a5d8ff"></path><path d="M32 0 C595.14 1.46, 1160.22 1.34, 2358.76 0 M32 0 C836.94 8.71, 1641.07 8.54, 2358.76 0 M2358.76 0 C2380.47 -0.67, 2389.17 11.05, 2390.76 32 M2358.76 0 C2379.12 -0.71, 2389.32 11.32, 2390.76 32 M2390.76 32 C2393.93 377.02, 2393.01 720.08, 2390.76 1127.36 M2390.76 32 C2393.31 453.34, 2393.15 875.18, 2390.76 1127.36 M2390.76 1127.36 C2389.91 1149.49, 2381.69 1158.84, 2358.76 1159.36 M2390.76 1127.36 C2390.88 1149.06, 2379.65 1160.97, 2358.76 1159.36 M2358.76 1159.36 C1464.51 1165.71, 569.27 1164.99, 32 1159.36 M2358.76 1159.36 C1528.77 1167.21, 698.13 1166.9, 32 1159.36 M32 1159.36 C11.18 1157.77, -0.41 1149.97, 0 1127.36 M32 1159.36 C8.95 1158.92, 1.05 1150.43, 0 1127.36 M0 1127.36 C-2.49 761.18, -2.04 394.31, 0 32 M0 1127.36 C-4.23 881.08, -3.79 635.48, 0 32 M0 32 C-1.53 9.17, 11.03 -0.68, 32 0 M0 32 C1.09 10, 11.18 1.15, 32 0" stroke="#1e1e1e" stroke-width="2" fill="none"></path></g><g stroke-linecap="round"><g transform="translate(4677.028867820584 3232.5962993276453) rotate(0 -257.3298353237733 322.0295546259018)"><path d="M-1.01 0.67 C-15.51 56.15, -2.02 225.57, -87.68 332.9 C-173.35 440.23, -443.98 592.77, -514.97 644.65 M0.67 -0.02 C-13.42 55.11, 0.52 224.05, -85.58 331.16 C-171.67 438.26, -444.69 590.26, -515.9 642.61" stroke="#1e1e1e" stroke-width="2" fill="none"></path></g><g transform="translate(4677.028867820584 3232.5962993276453) rotate(0 -257.3298353237733 322.0295546259018)"><path d="M-500.85 622.65 C-503.38 625.46, -506.95 631.72, -515.9 642.61 M-500.85 622.65 C-506.48 628.81, -510.54 636.72, -515.9 642.61" stroke="#1e1e1e" stroke-width="2" fill="none"></path></g><g transform="translate(4677.028867820584 3232.5962993276453) rotate(0 -257.3298353237733 322.0295546259018)"><path d="M-491.54 637 C-496.34 636.24, -502.17 639.01, -515.9 642.61 M-491.54 637 C-500.54 638.16, -507.85 641.06, -515.9 642.61" stroke="#1e1e1e" stroke-width="2" fill="none"></path></g></g><mask></mask><g transform="translate(3549.4488617509573 3976.769937569132) rotate(0 1119.726318359375 599.6894335899021)"><text x="0" y="0" font-family="Virgil, Segoe UI Emoji" font-size="119.93788671798042px" fill="#1e1e1e" text-anchor="start" style="white-space: pre;" direction="ltr" dominant-baseline="text-before-edge">No worries for any design misalignment</text><text x="0" y="149.92235839747553" font-family="Virgil, Segoe UI Emoji" font-size="119.93788671798042px" fill="#1e1e1e" text-anchor="start" style="white-space: pre;" direction="ltr" dominant-baseline="text-before-edge">or class support.</text><text x="0" y="299.84471679495107" font-family="Virgil, Segoe UI Emoji" font-size="119.93788671798042px" fill="#1e1e1e" text-anchor="start" style="white-space: pre;" direction="ltr" dominant-baseline="text-before-edge"></text><text x="0" y="449.7670751924266" font-family="Virgil, Segoe UI Emoji" font-size="119.93788671798042px" fill="#1e1e1e" text-anchor="start" style="white-space: pre;" direction="ltr" dominant-baseline="text-before-edge">Supports every design .</text><text x="0" y="599.6894335899021" font-family="Virgil, Segoe UI Emoji" font-size="119.93788671798042px" fill="#1e1e1e" text-anchor="start" style="white-space: pre;" direction="ltr" dominant-baseline="text-before-edge"></text><text x="0" y="749.6117919873777" font-family="Virgil, Segoe UI Emoji" font-size="119.93788671798042px" fill="#1e1e1e" text-anchor="start" style="white-space: pre;" direction="ltr" dominant-baseline="text-before-edge">No need to code.</text><text x="0" y="899.5341503848532" font-family="Virgil, Segoe UI Emoji" font-size="119.93788671798042px" fill="#1e1e1e" text-anchor="start" style="white-space: pre;" direction="ltr" dominant-baseline="text-before-edge"></text><text x="0" y="1049.4565087823287" font-family="Virgil, Segoe UI Emoji" font-size="119.93788671798042px" fill="#1e1e1e" text-anchor="start" style="white-space: pre;" direction="ltr" dominant-baseline="text-before-edge"></text></g><g transform="translate(1734.0198099306704 91.35181408066092) rotate(0 1034.53369140625 86.05768755144368)"><text x="0" y="0" font-family="Virgil, Segoe UI Emoji" font-size="137.6923000823098px" fill="#1e1e1e" text-anchor="start" style="white-space: pre;" direction="ltr" dominant-baseline="text-before-edge">Email Template Design Method</text></g><g transform="translate(1813.0974003781803 1193.1970318598333) rotate(0 847.123291015625 95.29881435457354)"><text x="0" y="0" font-family="Virgil, Segoe UI Emoji" font-size="152.47810296731765px" fill="#1e1e1e" text-anchor="start" style="white-space: pre;" direction="ltr" dominant-baseline="text-before-edge">Current Working Design</text></g><g stroke-linecap="round" transform="translate(10 2946.550821297151) rotate(0 1059.8531367817036 874.5979539529804)"><path d="M32 0 C844.85 -11.18, 1660.29 -8.87, 2087.71 0 C2110.86 2.48, 2122.19 8.61, 2119.71 32 C2108.04 449.11, 2108.95 867.06, 2119.71 1717.2 C2122.28 1738.84, 2108.35 1751.62, 2087.71 1749.2 C1314.46 1763.46, 539.02 1763.41, 32 1749.2 C12.93 1748.12, 1.32 1736.25, 0 1717.2 C-8.69 1209.03, -10 700.65, 0 32 C-1.91 7.75, 12.97 -0.66, 32 0" stroke="none" stroke-width="0" fill="#ff8787"></path><path d="M32 0 C524.37 4.38, 1016.06 4.29, 2087.71 0 M32 0 C668.26 5.37, 1303.79 5.28, 2087.71 0 M2087.71 0 C2107.93 1.04, 2119.51 12.18, 2119.71 32 M2087.71 0 C2107.99 -0.32, 2121.48 11.94, 2119.71 32 M2119.71 32 C2125.6 639.02, 2126.21 1246.51, 2119.71 1717.2 M2119.71 32 C2121.55 373.6, 2121.63 715.22, 2119.71 1717.2 M2119.71 1717.2 C2120.53 1737.89, 2107.98 1750.86, 2087.71 1749.2 M2119.71 1717.2 C2119.7 1737.72, 2107.16 1747.83, 2087.71 1749.2 M2087.71 1749.2 C1543.48 1748.55, 1000.59 1747.59, 32 1749.2 M2087.71 1749.2 C1593.77 1756.96, 1100 1756.93, 32 1749.2 M32 1749.2 C9.92 1750.29, -0.47 1740.43, 0 1717.2 M32 1749.2 C8.37 1749.79, 0.58 1739.36, 0 1717.2 M0 1717.2 C-6.32 1098.62, -5.83 480.32, 0 32 M0 1717.2 C0.95 1345.68, 0.96 973.2, 0 32 M0 32 C-1.93 8.96, 8.87 -1.25, 32 0 M0 32 C-1.04 12.65, 10.57 0.43, 32 0" stroke="#e03131" stroke-width="2" fill="none"></path></g><g stroke-linecap="round"><g transform="translate(2418.0706181296973 1485.5536928363715) rotate(0 -1072.5973451763834 728.3441603160564)"><path d="M-0.93 -0.45 C-126.14 163.49, -394.09 739.58, -751.64 982.51 C-1109.2 1225.44, -1914.05 1378.14, -2146.25 1457.14 M0.79 -1.73 C-124.02 162, -391.99 738.16, -749.44 980.96 C-1106.89 1223.75, -1911.42 1375.61, -2143.9 1455.03" stroke="#e03131" stroke-width="2" fill="none"></path></g><g transform="translate(2418.0706181296973 1485.5536928363715) rotate(0 -1072.5973451763834 728.3441603160564)"><path d="M-2123.48 1440.61 C-2129.86 1442.7, -2132.79 1446.45, -2143.9 1455.03 M-2123.48 1440.61 C-2130.04 1445.4, -2138.16 1451.11, -2143.9 1455.03" stroke="#e03131" stroke-width="2" fill="none"></path></g><g transform="translate(2418.0706181296973 1485.5536928363715) rotate(0 -1072.5973451763834 728.3441603160564)"><path d="M-2118.99 1457.11 C-2126.41 1454.73, -2130.56 1454.05, -2143.9 1455.03 M-2118.99 1457.11 C-2127.12 1456.33, -2136.76 1456.47, -2143.9 1455.03" stroke="#e03131" stroke-width="2" fill="none"></path></g></g><mask></mask><g transform="translate(66.2299598378695 3021.3349617578633) rotate(0 909.2389526367188 606.4190247102923)"><text x="0" y="0" font-family="Virgil, Segoe UI Emoji" font-size="80.85586996137233px" fill="#ffffff" text-anchor="start" style="white-space: pre;" direction="ltr" dominant-baseline="text-before-edge">Mostly Used by all of the USERS around the</text><text x="0" y="101.06983745171541" font-family="Virgil, Segoe UI Emoji" font-size="80.85586996137233px" fill="#ffffff" text-anchor="start" style="white-space: pre;" direction="ltr" dominant-baseline="text-before-edge">world : </text><text x="0" y="202.13967490343083" font-family="Virgil, Segoe UI Emoji" font-size="80.85586996137233px" fill="#ffffff" text-anchor="start" style="white-space: pre;" direction="ltr" dominant-baseline="text-before-edge"></text><text x="0" y="303.2095123551462" font-family="Virgil, Segoe UI Emoji" font-size="80.85586996137233px" fill="#ffffff" text-anchor="start" style="white-space: pre;" direction="ltr" dominant-baseline="text-before-edge">-&gt;Gmail</text><text x="0" y="404.27934980686166" font-family="Virgil, Segoe UI Emoji" font-size="80.85586996137233px" fill="#ffffff" text-anchor="start" style="white-space: pre;" direction="ltr" dominant-baseline="text-before-edge">-&gt;Proton Mail</text><text x="0" y="505.3491872585771" font-family="Virgil, Segoe UI Emoji" font-size="80.85586996137233px" fill="#ffffff" text-anchor="start" style="white-space: pre;" direction="ltr" dominant-baseline="text-before-edge">-&gt;Outlook</text><text x="0" y="606.4190247102924" font-family="Virgil, Segoe UI Emoji" font-size="80.85586996137233px" fill="#ffffff" text-anchor="start" style="white-space: pre;" direction="ltr" dominant-baseline="text-before-edge">-&gt;Yahoo Mail</text><text x="0" y="707.4888621620079" font-family="Virgil, Segoe UI Emoji" font-size="80.85586996137233px" fill="#ffffff" text-anchor="start" style="white-space: pre;" direction="ltr" dominant-baseline="text-before-edge"></text><text x="0" y="808.5586996137233" font-family="Virgil, Segoe UI Emoji" font-size="80.85586996137233px" fill="#ffffff" text-anchor="start" style="white-space: pre;" direction="ltr" dominant-baseline="text-before-edge">Other Similar email client services</text><text x="0" y="909.6285370654388" font-family="Virgil, Segoe UI Emoji" font-size="80.85586996137233px" fill="#ffffff" text-anchor="start" style="white-space: pre;" direction="ltr" dominant-baseline="text-before-edge">-&gt;AOL Mail</text><text x="0" y="1010.6983745171542" font-family="Virgil, Segoe UI Emoji" font-size="80.85586996137233px" fill="#ffffff" text-anchor="start" style="white-space: pre;" direction="ltr" dominant-baseline="text-before-edge">-&gt;Mailbird</text><text x="0" y="1111.7682119688695" font-family="Virgil, Segoe UI Emoji" font-size="80.85586996137233px" fill="#ffffff" text-anchor="start" style="white-space: pre;" direction="ltr" dominant-baseline="text-before-edge">-&gt;Mozilla Thunderbird</text></g></svg>